<?xml version="1.0" encoding="UTF-8" standalone="no"?>
<!-- Created with Inkscape (http://www.inkscape.org/) -->

<svg
   width="420.33279"
   height="248.06801"
   viewBox="0 0 420.3328 248.06801"
   version="1.1"
   id="svg1"
   sodipodi:docname="logo.svg"
   inkscape:version="1.4.2 (f4327f4, 2025-05-13)"
   xmlns:inkscape="http://www.inkscape.org/namespaces/inkscape"
   xmlns:sodipodi="http://sodipodi.sourceforge.net/DTD/sodipodi-0.dtd"
   xmlns="http://www.w3.org/2000/svg"
   xmlns:svg="http://www.w3.org/2000/svg">
  <sodipodi:namedview
     id="namedview1"
     pagecolor="#ffffff"
     bordercolor="#000000"
     borderopacity="0.25"
     inkscape:showpageshadow="2"
     inkscape:pageopacity="0.0"
     inkscape:pagecheckerboard="true"
     inkscape:deskcolor="#d1d1d1"
     inkscape:document-units="px"
     inkscape:zoom="1.1064453"
     inkscape:cx="153.19329"
     inkscape:cy="-92.639011"
     inkscape:window-width="3440"
     inkscape:window-height="1351"
     inkscape:window-x="-9"
     inkscape:window-y="951"
     inkscape:window-maximized="1"
     inkscape:current-layer="layer1" />
  <defs
     id="defs1">
    <rect
       x="94.903343"
       y="121.10561"
       width="63.907974"
       height="19.491932"
       id="rect3" />
    <rect
       x="83.080368"
       y="71.257393"
       width="37.946426"
       height="15.80004"
       id="rect2" />
  </defs>
  <g
     inkscape:label="Layer 1"
     inkscape:groupmode="layer"
     id="layer1"
     transform="translate(-55.373158,-142.03268)">
    <path
       style="font-size:12px;font-family:Montserrat;-inkscape-font-specification:'Montserrat, @wght=500';font-variation-settings:'wght' 500;white-space:pre;fill:#f08787"
       d="m 84.340078,82.357812 v -8.4 h 3.276 q 1.104,0 1.884,0.348001 0.78,0.347999 1.2,1.007999 0.42,0.66 0.42,1.572 0,0.912 -0.42,1.572 -0.42,0.648 -1.2,1.008 -0.78,0.348 -1.884,0.348 h -2.616 l 0.54,-0.564 v 3.108 z m 1.2,-2.988 -0.54,-0.6 h 2.58 q 1.152,0 1.74,-0.492 0.6,-0.492 0.6,-1.392 0,-0.9 -0.6,-1.392 -0.588,-0.492 -1.74,-0.492 h -2.58 l 0.54,-0.6 z m 7.296002,2.988 v -8.904 h 1.152 v 8.904 z m 7.29599,0 v -1.344 l -0.06,-0.252 v -2.292 q 0,-0.732 -0.431998,-1.128 -0.42,-0.408 -1.272,-0.408 -0.564,0 -1.104,0.192 -0.54,0.180001 -0.912,0.492 l -0.48,-0.864 q 0.492,-0.396 1.176,-0.6 0.696,-0.216 1.452,-0.216 1.308,0 2.015998,0.636 0.708,0.636 0.708,1.944 v 3.84 z m -2.087998,0.072 q -0.708,0 -1.248,-0.24 -0.528,-0.24 -0.816,-0.66 -0.288,-0.432 -0.288,-0.972 0,-0.516 0.24,-0.936 0.252,-0.42 0.804,-0.672 0.564,-0.252 1.512,-0.252 h 2.015998 v 0.828 h -1.967998 q -0.864,0 -1.164,0.288 -0.3,0.288 -0.3,0.696 0,0.468 0.372,0.756 0.372,0.276 1.032,0.276 0.648,0 1.128,-0.288 0.492,-0.288 0.707998,-0.84 l 0.228,0.792 q -0.228,0.564 -0.803998,0.9 -0.576,0.324 -1.452,0.324 z m 5.315998,-0.072 v -6.36 h 1.104 v 1.716 l -0.18,-0.456 q 0.312,-0.624 0.96,-0.972 0.648,-0.348 1.512,-0.348 0.78,0 1.368,0.3 0.6,0.3 0.936,0.912 0.336,0.612 0.336,1.548 v 3.66 h -1.152 v -3.528 q 0,-0.924 -0.456,-1.392 -0.444,-0.468 -1.26,-0.468 -0.612,0 -1.068,0.24 -0.456,0.24 -0.708,0.708 -0.24,0.468 -0.24,1.164 v 3.276 z m 11.00399,0.072 q -1.02,0 -1.8,-0.42 -0.768,-0.42 -1.2,-1.152 -0.42,-0.732 -0.42,-1.68 0,-0.948 0.408,-1.68 0.42,-0.732 1.14,-1.14 0.732,-0.42 1.644,-0.42 0.924,0 1.632,0.408 0.708,0.408 1.104,1.152 0.408,0.732 0.408,1.716 0,0.072 -0.012,0.168 0,0.096 -0.012,0.18 h -5.412 v -0.828 h 4.812 l -0.468,0.288 q 0.012,-0.612 -0.252,-1.092 -0.264,-0.48 -0.732,-0.744 -0.456,-0.276 -1.068,-0.276 -0.6,0 -1.068,0.276 -0.468,0.264 -0.732,0.756 -0.264,0.48 -0.264,1.104 v 0.192 q 0,0.636 0.288,1.14 0.3,0.492 0.828,0.768 0.528,0.276 1.212,0.276 0.564,0 1.02,-0.192 0.468,-0.192 0.816,-0.576 l 0.636,0.744 q -0.432,0.504 -1.08,0.768 -0.636,0.264 -1.428,0.264 z"
       id="text2"
       transform="matrix(7.964467,0,0,8.9637951,-566.75975,-516.39239)"
       aria-label="Plane&#10;" />
    <path
       style="font-size:12px;font-family:Montserrat;-inkscape-font-specification:'Montserrat, @wght=500';font-variation-settings:'wght' 500;white-space:pre;fill:#fee2ad"
       d="m 102.3083,132.26659 -4.716003,-4.692 q -0.42,-0.42 -0.66,-0.744 -0.24,-0.336 -0.348,-0.648 -0.108,-0.312 -0.108,-0.636 0,-0.564 0.276,-0.984 0.288,-0.432 0.792,-0.66 0.516,-0.24 1.2,-0.24 0.636,0 1.104,0.216 0.468003,0.204 0.720003,0.6 0.264,0.384 0.264,0.936 0,0.48 -0.24,0.888 -0.228,0.408 -0.744003,0.792 -0.516,0.384 -1.392,0.828 -0.72,0.372 -1.128,0.696 -0.408,0.312 -0.588,0.624 -0.168,0.312 -0.168,0.684 0,0.396 0.228,0.708 0.24,0.3 0.66,0.468 0.432,0.168 0.996,0.168 0.804,0 1.452,-0.348 0.648003,-0.348 1.080003,-1.044 0.444,-0.696 0.648,-1.728 l 0.924,0.3 q -0.24,1.212 -0.828,2.052 -0.576,0.84 -1.428,1.284 -0.852003,0.444 -1.920003,0.444 -0.852,0 -1.512,-0.276 -0.66,-0.276 -1.044,-0.768 -0.384,-0.492 -0.384,-1.14 0,-0.564 0.252,-1.032 0.252,-0.468 0.804,-0.9 0.552,-0.444 1.452,-0.912 0.732,-0.384 1.14,-0.672 0.42,-0.288 0.588,-0.54 0.18,-0.264 0.18,-0.564 0,-0.408 -0.288,-0.66 -0.288,-0.264 -0.828,-0.264 -0.564,0 -0.888,0.288 -0.312,0.276 -0.312,0.732 0,0.228 0.072,0.444 0.084,0.204 0.288,0.468 0.216,0.252 0.612,0.648 l 4.440003,4.416 z m 7.764,-0.036 q -0.96,0 -1.836,-0.288 -0.876,-0.3 -1.38,-0.768 l 0.444,-0.936 q 0.48,0.42 1.224,0.696 0.744,0.276 1.548,0.276 0.732,0 1.188,-0.168 0.456,-0.168 0.672,-0.456 0.216,-0.3 0.216,-0.672 0,-0.432 -0.288,-0.696 -0.276,-0.264 -0.732,-0.42 -0.444,-0.168 -0.984,-0.288 -0.54,-0.12 -1.092,-0.276 -0.54,-0.168 -0.996,-0.42 -0.444,-0.252 -0.72,-0.672 -0.276,-0.432 -0.276,-1.104 0,-0.648 0.336,-1.188 0.348,-0.552 1.056,-0.876 0.72,-0.336 1.824,-0.336 0.732,0 1.452,0.192 0.72,0.192 1.248,0.552 l -0.396,0.96 q -0.54,-0.36 -1.14,-0.516 -0.6,-0.168 -1.164,-0.168 -0.708,0 -1.164,0.18 -0.456,0.18 -0.672,0.48 -0.204,0.3 -0.204,0.672 0,0.444 0.276,0.708 0.288,0.264 0.732,0.42 0.456,0.156 0.996,0.288 0.54,0.12 1.08,0.276 0.552,0.156 0.996,0.408 0.456,0.252 0.732,0.672 0.276,0.42 0.276,1.08 0,0.636 -0.348,1.188 -0.348,0.54 -1.08,0.876 -0.72,0.324 -1.824,0.324 z m 4.836,-0.096 v -6.36 h 1.152 v 6.36 z m 0.576,-7.584 q -0.336,0 -0.564,-0.216 -0.216,-0.216 -0.216,-0.528 0,-0.324 0.216,-0.54 0.228,-0.216 0.564,-0.216 0.336,0 0.552,0.216 0.228,0.204 0.228,0.516 0,0.324 -0.216,0.552 -0.216,0.216 -0.564,0.216 z m 2.77199,7.584 v -6.36 h 1.104 v 1.692 l -0.18,-0.432 q 0.3,-0.624 0.924,-0.972 0.624,-0.348 1.452,-0.348 0.912,0 1.572,0.456 0.66,0.444 0.864,1.356 l -0.468,-0.192 q 0.288,-0.732 1.008,-1.176 0.72,-0.444 1.68,-0.444 0.768,0 1.356,0.3 0.588,0.3 0.912,0.912 0.336,0.612 0.336,1.548 v 3.66 h -1.152 v -3.528 q 0,-0.924 -0.432,-1.392 -0.432,-0.468 -1.212,-0.468 -0.576,0 -1.008,0.24 -0.432,0.24 -0.672,0.708 -0.228,0.468 -0.228,1.164 v 3.276 h -1.152 v -3.528 q 0,-0.924 -0.432,-1.392 -0.42,-0.468 -1.212,-0.468 -0.564,0 -0.996,0.24 -0.432,0.24 -0.672,0.708 -0.24,0.468 -0.24,1.164 v 3.276 z m 16.05599,0.072 q -0.792,0 -1.452,-0.36 -0.648,-0.372 -1.044,-1.092 -0.384,-0.72 -0.384,-1.8 0,-1.08 0.372,-1.8 0.384,-0.72 1.032,-1.08 0.66,-0.36 1.476,-0.36 0.936,0 1.656,0.408 0.72,0.408 1.14,1.14 0.42,0.72 0.42,1.692 0,0.972 -0.42,1.704 -0.42,0.732 -1.14,1.14 -0.72,0.408 -1.656,0.408 z m -3.372,2.256 v -8.688 h 1.104 v 1.716 l -0.072,1.476 0.12,1.476 v 4.02 z m 3.276,-3.264 q 0.612,0 1.092,-0.276 0.492,-0.276 0.768,-0.78 0.288,-0.516 0.288,-1.188 0,-0.684 -0.288,-1.176 -0.276,-0.504 -0.768,-0.78 -0.48,-0.276 -1.092,-0.276 -0.6,0 -1.092,0.276 -0.48,0.276 -0.768,0.78 -0.276,0.492 -0.276,1.176 0,0.672 0.276,1.188 0.288,0.504 0.768,0.78 0.492,0.276 1.092,0.276 z m 4.90799,0.936 v -8.904 h 1.152 v 8.904 z m 6.17999,0.072 q -1.02,0 -1.8,-0.42 -0.768,-0.42 -1.2,-1.152 -0.42,-0.732 -0.42,-1.68 0,-0.948 0.408,-1.68 0.42,-0.732 1.14,-1.14 0.732,-0.42 1.644,-0.42 0.924,0 1.632,0.408 0.708,0.408 1.104,1.152 0.408,0.732 0.408,1.716 0,0.072 -0.012,0.168 0,0.096 -0.012,0.18 h -5.412 v -0.828 h 4.812 l -0.468,0.288 q 0.012,-0.612 -0.252,-1.092 -0.264,-0.48 -0.732,-0.744 -0.456,-0.276 -1.068,-0.276 -0.6,0 -1.068,0.276 -0.468,0.264 -0.732,0.756 -0.264,0.48 -0.264,1.104 v 0.192 q 0,0.636 0.288,1.14 0.3,0.492 0.828,0.768 0.528,0.276 1.212,0.276 0.564,0 1.02,-0.192 0.468,-0.192 0.816,-0.576 l 0.636,0.744 q -0.432,0.504 -1.08,0.768 -0.636,0.264 -1.428,0.264 z"
       id="text3"
       transform="matrix(7.964467,0,0,8.9637951,-704.78962,-815.19425)"
       aria-label="&amp; Simple" />
    <path
       style="fill:#ffc7a7;fill-opacity:1"
       d="m 136.62681,242.78607 c -14.84345,1.21407 -23.99111,-2.74001 -43.297659,11.02413 -10.062389,7.17374 -16.296527,15.01837 -16.935606,20.29078 -0.615211,5.07549 3.514938,8.62758 43.457425,6.55057 18.16398,-0.94453 114.75379,-1.33755 171.75267,-5.91149 59.03341,-4.7372 96.1671,-5.22032 141.23663,-22.04825 3.83879,-1.43332 5.43217,-32.67295 8.62757,-52.48443 3.1954,-19.81147 3.98702,-25.36256 2.15689,-27.00111 -1.42051,-1.27183 -18.415,0.26911 -20.53043,2.55631 -3.34453,3.61611 -29.56286,52.34048 -33.79134,55.67983 -1.38524,1.09397 -107.12522,6.80177 -153.29925,9.10689 -33.09281,1.65207 -79.64956,0.62324 -99.3769,2.23677 z"
       id="path3"
       sodipodi:nodetypes="ssssssssssss" />
  </g>
</svg>
